<svg xmlns="http://www.w3.org/2000/svg" version="1.1" xmlns:xlink="http://www.w3.org/1999/xlink" width="1000" height="1000"><metadata><rdf:RDF xmlns:rdf="http://www.w3.org/1999/02/22-rdf-syntax-ns#" xmlns:dc="http://purl.org/dc/elements/1.1/"><rdf:Description><dc:creator>RealFaviconGenerator</dc:creator><dc:source>https://realfavicongenerator.net</dc:source></rdf:Description></rdf:RDF></metadata><g clip-path="url(#SvgjsClipPath1009)"><rect width="1000" height="1000" fill="#03060d"></rect><g transform="matrix(1.3671875,0,0,1.3671875,150,150)"><svg xmlns="http://www.w3.org/2000/svg" viewBox="0 0 512 512" width="512" height="512"><rect width="512" height="512" fill="#03060D"></rect><polygon points="256,52 432,152 432,360 256,460 80,360 80,152" fill="#0B1422"></polygon><polygon points="256,52 432,152 432,360 256,460 80,360 80,152" fill="none" stroke="#2563EB" stroke-width="6" opacity="0.6"></polygon><polygon points="256,100 390,175 390,325 256,400 122,325 122,175" fill="none" stroke="#2563EB" stroke-width="2" opacity="0.18"></polygon><path d="M168,130 L214,130 L256,196 L298,130 L344,130 L284,256 L344,382 L298,382 L256,316 L214,382 L168,382 L228,256 Z" fill="#2563EB"></path><polygon points="256,220 284,256 256,292 228,256" fill="#60A5FA"></polygon><circle cx="256" cy="52" r="7" fill="#2563EB" opacity="0.9"></circle><circle cx="432" cy="152" r="6" fill="#2563EB" opacity="0.6"></circle><circle cx="432" cy="360" r="6" fill="#2563EB" opacity="0.6"></circle><circle cx="256" cy="460" r="7" fill="#2563EB" opacity="0.9"></circle><circle cx="80" cy="360" r="6" fill="#2563EB" opacity="0.6"></circle><circle cx="80" cy="152" r="6" fill="#2563EB" opacity="0.6"></circle></svg></g></g><defs><clipPath id="SvgjsClipPath1009"><rect width="1000" height="1000" x="0" y="0" rx="350" ry="350"></rect></clipPath></defs></svg>